<?xml version="1.0" encoding="UTF-8"?>
<svg width="279px" height="444px" viewBox="0 0 279 444" version="1.1" xmlns="http://www.w3.org/2000/svg" xmlns:xlink="http://www.w3.org/1999/xlink">
    <!-- Generator: Sketch 51.3 (57544) - http://www.bohemiancoding.com/sketch -->
    <title>map</title>
    <desc>Created with Sketch.</desc>
    <defs></defs>
    <g id="Zipcares-Resume-Lander" stroke="none" stroke-width="1" fill="none" fill-rule="evenodd">
        <g id="PUB_JBIO_UK_LandingPage_201809_ver2" transform="translate(-277.000000, -660.000000)">
            <g id="1_Map" transform="translate(278.000000, 661.000000)">
                <g id="map">
                    <path d="M276.774944,313.176015 C276.472995,311.862233 276.774944,310.449488 276.472995,309.136716 C275.870104,306.308197 274.56166,303.783636 272.245713,301.865979 C269.930773,300.048294 267.615833,298.129627 265.099594,296.61489 C263.388551,295.605066 261.375559,295.100153 259.464224,294.595241 C257.550876,294.090329 255.438241,293.989346 253.42525,293.685389 C253.223951,293.685389 252.820346,293.585416 252.720703,293.685389 C251.412258,295.402091 249.800859,294.392266 248.291115,294.292294 C246.681728,294.190301 245.070329,293.787381 243.459936,293.787381 C240.541098,293.787381 238.528107,295.605066 238.327814,298.331592 C238.226158,300.351242 237.219662,301.865979 236.213166,303.278723 C235.40797,303.077768 234.60378,302.975776 233.898226,302.773811 C233.094036,302.572856 232.087541,302.470864 231.482637,302.067944 C229.7726,300.856154 228.161201,299.543382 226.450158,298.129627 C226.551814,298.028645 226.753113,297.624715 227.055062,297.321768 C229.368996,294.797206 231.584293,292.170652 233.898226,289.748083 C234.805079,288.838231 235.206671,287.828406 234.703423,286.718609 C233.094036,282.376363 231.482637,277.933134 229.571301,273.690861 C229.068053,272.581063 227.657953,271.671211 226.450158,270.964334 C222.525831,268.844712 218.398192,266.925036 215.580004,263.087702 C215.076756,262.380825 214.171917,261.77594 213.567013,261.271027 C214.774808,260.56314 215.881953,261.068053 216.787799,262.280852 C217.391696,263.087702 217.9966,263.795589 218.701147,264.400474 C219.102739,264.805414 219.707643,265.107351 220.310534,265.209343 C222.323526,265.310326 224.336517,265.209343 226.349508,265.209343 C227.256361,265.209343 227.55831,264.704431 227.154705,263.895562 C226.551814,262.885737 225.94691,261.977905 225.343013,261.068053 C222.826773,257.635659 220.210891,254.202255 217.894944,250.667868 C215.580004,247.133482 216.083252,244.910858 219.605987,242.488289 C219.204395,242.184331 218.80079,241.781411 218.398192,241.679419 C216.5865,241.074534 215.378705,239.65977 214.372209,238.145033 C213.970618,237.540148 213.46737,237.035235 212.862466,236.732288 C210.849474,235.620471 209.441387,234.005761 208.735833,231.88513 C208.333235,230.773313 207.829987,229.561523 207.428395,228.451726 C206.925147,227.036962 206.018295,226.027137 204.70985,225.321269 C199.274774,222.694715 193.840703,219.969199 187.700073,219.464286 C187.599423,219.464286 187.398124,219.363304 187.096175,219.160329 C188.304977,216.939725 186.693577,215.625943 185.486789,214.111206 C185.083184,213.606294 184.480293,213.001409 184.378637,212.294531 C183.775746,210.1739 183.473797,207.952285 182.868893,205.730671 C182.667594,204.821829 182.365645,203.711022 181.762754,203.003135 C179.648107,200.3786 178.441319,197.449099 177.736772,194.21867 C177.233524,191.895063 176.931575,189.573476 176.024722,187.452845 C175.118876,185.433195 175.220532,183.514529 175.521475,181.494879 C175.622124,180.888984 175.823423,180.081125 175.521475,179.576212 C174.11238,177.051651 173.307184,174.022177 169.886105,173.213307 C169.382857,173.113335 168.979252,172.608422 168.576654,172.203483 C166.463013,169.276001 164.350378,166.347509 162.136088,163.52 C161.129592,162.207228 160.123096,160.894456 158.712996,160.085587 C156.801661,158.975789 154.485714,158.470877 152.472722,157.36007 C150.862329,156.451228 148.648039,156.754175 147.943492,154.431578 C147.943492,154.330596 147.743199,154.330596 147.743199,154.229613 C145.326603,152.511902 141.502926,153.320771 139.993182,155.845333 C138.583082,158.16793 136.771389,158.773824 134.25515,157.965965 C133.651253,157.764 132.947712,157.461052 132.342808,157.561025 C128.216176,157.864982 124.290842,156.95614 120.264859,156.350245 C119.660962,156.249263 119.057065,155.74435 118.453167,155.340421 C118.553817,155.239438 118.553817,155.036463 118.654466,154.936491 C120.768107,154.936491 122.882755,154.229613 124.79409,155.845333 C125.398994,156.350245 126.706432,156.046288 127.612278,155.74435 C129.122022,155.239438 130.631765,154.531551 132.141509,153.926666 C132.644757,153.724701 133.349304,153.421754 133.45096,153.016814 C133.751902,150.997165 134.859047,149.58442 136.470447,148.37263 C136.973695,147.967691 137.777885,147.362806 138.281133,147.564771 C142.006173,148.675578 144.420757,146.554946 146.736703,144.232349 C148.34609,142.61663 148.045148,141.606805 145.829851,140.898918 C144.723712,140.596981 143.61556,140.294033 142.509421,139.991086 C141.602569,139.688138 140.999678,139.183226 141.602569,138.173401 C142.006173,137.364532 142.307116,136.456699 141.502926,136.05277 C140.797372,135.64884 139.691233,135.344882 138.88503,135.446875 C137.677235,135.749822 136.57009,136.557682 135.463951,137.062594 C134.25515,137.567507 133.148005,138.173401 131.941216,138.678314 C131.83956,138.476349 131.738911,138.374356 131.638261,138.173401 C132.644757,137.466524 133.550603,136.557682 134.657748,136.153752 C137.274637,135.344882 139.891526,134.739998 142.609064,134.03312 C143.313611,133.830145 144.019165,133.528208 144.622056,133.124278 C148.246447,130.295759 150.058139,126.256461 151.769182,122.117189 C152.372073,120.702425 153.17727,119.187688 154.183765,118.077891 C156.298413,115.856276 157.304908,113.230732 157.606857,110.302241 C157.7065,109.292416 157.907799,108.181609 158.411047,107.474732 C159.920791,105.152135 160.626344,102.728556 160.324396,100.001019 C160.22274,98.9911948 160.424039,97.8813975 160.626344,96.7705903 C160.927287,95.1548709 161.63284,93.6401339 163.040928,92.7312917 C165.356874,91.2165547 166.563663,88.9949405 167.06691,86.3683865 C168.376361,80.6133958 161.732483,74.3524829 155.995458,75.9682024 C153.881817,76.5740972 151.667526,76.8770446 149.453235,77.3819569 C145.730208,78.2897893 142.105817,78.2897893 138.583082,76.978027 C137.980191,76.7750523 137.073338,76.7750523 136.470447,76.978027 C134.1545,77.9878517 132.040859,77.3819569 129.826569,76.5740972 C128.014876,75.9682024 126.001885,75.7652276 124.089543,75.5642725 C122.982398,75.46329 122.277851,76.0691848 122.277851,77.2799646 C122.277851,77.5839218 122.177201,77.9878517 122.177201,78.492764 L119.863268,78.492764 C118.251868,78.5937465 116.440176,78.1898166 115.43368,79.9065185 C114.427184,81.6232205 112.917441,82.0271503 111.206398,82.0271503 L108.086261,82.0271503 C108.288567,84.0467996 107.079765,85.2585892 104.160928,86.2684139 L104.160928,83.6428698 C104.865475,83.5418873 105.469372,83.4409048 106.07327,83.2389399 C106.475868,83.036975 106.979116,82.8340002 107.180415,82.4310802 C107.785319,81.522238 108.38821,80.6133958 108.891458,79.6035711 C109.193407,79.0986588 109.495355,78.5937465 109.79831,77.9878517 C109.998603,77.5839218 110.199902,77.179992 110.401201,76.7750523 C111.910945,74.8573952 113.420689,72.9387284 114.830789,71.0200615 C115.232381,70.4141667 115.837285,69.4043421 114.830789,68.8994298 C114.527834,68.696455 113.722637,69.5053245 113.11874,69.9092544 C112.716142,70.1112193 112.112244,70.5151492 111.811302,70.4141667 C110.904449,70.1112193 109.998603,69.606307 109.295063,70.8180966 C109.193407,71.0200615 108.589509,70.9190791 108.288567,70.8180966 C106.778823,70.3131843 105.26908,69.7062797 103.759336,69.2013673 C104.563526,69.2013673 105.26908,69.3033596 106.07327,69.4043421 C107.482364,69.606307 108.891458,69.5053245 109.596005,68.1915427 C109.998603,67.4856752 109.495355,66.3748681 109.394706,64.9611136 C109.897954,64.7591486 110.904449,64.3552188 111.811302,63.9512889 C112.31455,63.749324 112.917441,63.6473317 113.219389,63.2444117 C114.729133,61.7296747 116.138227,60.2149377 117.547321,58.5982084 C119.560312,56.377604 122.47915,55.0638221 123.787594,52.2373229 C124.592791,50.4196385 126.102535,49.3088314 127.915233,48.7029366 C128.518124,48.4999618 129.122022,48.0970418 129.424977,47.5921294 C130.431473,45.9754002 131.336312,44.3606905 132.242159,42.7449711 C132.947712,41.4311892 132.745406,40.3213919 131.537612,39.9164522 C130.128517,39.4115399 130.229167,38.60469 130.833065,37.5948653 C131.638261,36.2820933 132.444464,34.8673289 133.148005,33.4545842 C133.852552,32.0408297 133.651253,31.6368998 131.941216,31.4349349 C129.826569,31.23297 127.712928,31.031005 125.599287,30.9300226 C124.79409,30.9300226 124.089543,31.1319875 123.284347,31.23297 C123.386003,31.8378549 123.485646,32.545742 123.686945,33.2526193 C122.277851,33.1516368 120.768107,32.9496719 119.36002,32.8476796 C117.850276,32.6467245 116.742124,33.2526193 115.837285,34.5653913 C115.43368,35.1712861 114.527834,35.6761985 113.722637,35.7771809 C112.212894,35.9791459 110.501851,35.575216 108.992107,35.8771536 C107.282071,36.2820933 104.765832,34.6663738 104.060278,37.8968029 C101.141441,35.8771536 99.6316972,37.9987952 97.8200049,40.2204094 C98.021304,39.1096023 98.3232527,38.4017152 98.2236096,37.6958478 C98.2236096,37.089953 97.9206544,36.0801283 97.5180561,35.9791459 C96.5115604,35.6761985 95.4044151,35.7771809 94.2972698,35.6761985 C94.1976268,35.6761985 94.0959707,36.1811108 94.0959707,36.3820659 C94.3979194,38.4017152 92.6878832,39.1096023 91.4790818,40.119427 C91.6813875,39.2105848 91.9823297,38.5037075 92.2842784,37.6958478 C92.6878832,36.4840582 92.2842784,35.575216 90.8751844,34.8673289 C89.668396,34.2624439 89.56674,35.3722412 89.1651482,35.9791459 C89.0634921,36.0801283 88.9628425,36.2820933 88.862193,36.3820659 C88.5602442,35.6761985 88.6619003,35.1712861 88.6619003,34.5653913 C88.6619003,34.2624439 88.5602442,33.5555667 88.4595947,33.5555667 C87.2517998,33.4545842 85.9433554,33.2526193 84.7355605,33.4545842 C84.3329622,33.5555667 83.9303639,34.4644089 83.6294217,34.9693212 C83.3264665,35.6761985 83.2258169,36.5850407 82.7225691,37.089953 C80.9108768,39.1096023 81.0115263,40.2204094 83.0245178,41.4311892 C82.7225691,42.2400588 82.4206203,43.0479185 82.1196781,43.8557782 C80.5082785,43.0479185 79.904381,43.3508659 79.7030819,45.3705152 C79.5017827,47.7940944 80.5082785,49.6117788 82.8232186,50.5196111 C82.5212699,50.6216034 82.3199708,50.6216034 82.2193212,50.5196111 C80.9108768,49.9147262 79.8037315,49.7127612 78.5969431,50.8235684 C78.1933383,51.1265158 77.3881417,51.0245235 76.7842443,50.9245508 C76.2809964,50.8235684 75.8783982,50.5196111 75.3751503,50.4196385 C74.3686546,50.2176736 73.9660563,50.6216034 74.3686546,51.5294358 C74.972552,52.9442001 75.4757999,54.4589371 77.0871995,55.2667969 C77.9920392,55.6707267 78.0936952,56.4785864 77.5904474,57.2864462 C77.2874922,57.7913585 76.9855434,58.2962708 76.5839517,58.8011832 C75.9790477,59.6080331 75.3751503,59.7100254 74.5709602,59.1031207 C74.1673554,58.7002007 73.6641076,58.4982358 72.7582614,57.892341 C72.858911,58.8011832 72.858911,59.3060955 72.9595606,59.7100254 C73.5644645,62.1325947 74.8719024,63.749324 77.2874922,64.6571564 C78.495287,65.1620687 79.8037315,65.7689733 80.1066867,67.4856752 C78.495287,65.666981 76.5839517,66.3748681 74.7712529,66.2738856 C74.7712529,66.3748681 74.6706033,66.576833 74.6706033,66.6768057 C75.0742081,67.181718 75.4757999,67.6866303 75.9790477,68.1915427 C74.1673554,66.8797804 73.0612166,67.7886226 72.154364,69.8082719 C71.6511161,68.7984473 71.0482252,68.09157 70.9465691,67.3846928 C70.6446204,65.9709382 69.7387743,66.1718933 68.8329281,66.3748681 C67.7257828,66.6768057 67.8264324,67.4856752 68.2290307,68.293535 C68.5319859,68.7984473 68.7322785,69.4043421 69.1348768,69.9092544 C69.9400734,71.0200615 69.4368255,71.9289037 68.5319859,73.0397109 C68.2290307,71.8279213 67.927082,70.9190791 67.7257828,70.1112193 C67.5254902,69.1013947 67.0222423,68.4954999 66.0157466,68.4954999 C65.0092509,68.4954999 64.3036974,69.0004122 64.0027551,69.9092544 C63.2972016,71.9289037 63.6997999,73.7455783 65.3101931,75.2603153 C65.6121418,75.5642725 66.0157466,75.9682024 66.3166888,76.3721322 C63.6997999,77.0790095 63.4995073,78.8966939 64.8069452,81.0173257 C66.1153897,83.036975 67.222535,84.7536769 70.0417295,84.1477821 C68.028738,85.2585892 67.5254902,85.2585892 66.1153897,84.0467996 C65.6121418,83.5418873 65.0092509,83.1379574 64.506003,82.7340276 C63.2972016,81.9261679 62.6933042,82.1281328 62.3913555,83.5418873 C61.9897637,85.4605542 61.8881076,87.3782112 62.9962594,89.1969054 C63.2972016,89.7018177 63.4995073,90.4076852 63.4995073,91.1155722 C63.5991504,92.4273345 63.9010991,93.4371591 65.4108427,93.6401339 C65.3101931,94.750941 65.2095435,95.6597832 65.0092509,96.7705903 C63.2972016,96.265678 61.7874581,98.7902397 60.2777145,97.1745202 C60.3783641,96.4666331 60.5796632,95.9617208 60.4800201,95.5588007 C60.3783641,95.2558533 59.7744666,94.8519235 59.4735244,94.8519235 C58.9702765,94.8519235 58.5666718,95.2558533 58.0634239,95.4568085 C57.3588769,95.1548709 56.5536803,94.750941 55.6478342,94.3470112 C55.7484837,94.0440638 55.8491333,93.6401339 55.8491333,93.3371865 C54.9442937,90.0047651 55.9507894,86.5713613 55.5471846,83.2389399 C55.4475415,82.5320626 55.3458855,81.8241756 54.9442937,81.2192906 C54.037441,79.8045262 52.9313022,78.492764 51.9248065,77.179992 C51.7225009,76.8770446 51.219253,76.6750796 50.9183108,76.7750523 C49.0049624,77.3819569 47.7971675,79.8045262 48.7030137,81.7242029 C49.4085672,83.2389399 49.3069111,84.4507295 47.5958684,85.7635016 C46.5893727,84.3487372 45.582877,82.8340002 44.5763812,81.4212555 C44.2744325,81.1183081 43.7711847,80.9163432 43.3695929,80.7143783 C43.1672872,81.1183081 42.866345,81.522238 42.866345,81.8241756 C42.9659881,82.8340002 43.1672872,83.8438249 43.3695929,84.7536769 C43.0666377,85.3585619 42.7646889,86.066449 42.3630971,86.6723437 C41.7581932,85.9654665 41.0536462,85.2585892 40.2484496,84.4507295 C39.8468578,86.066449 39.5439026,87.2782385 39.1413043,88.8929482 C39.2419539,88.9949405 39.6445522,89.2978879 39.8468578,89.7018177 C40.0471505,90.1057476 40.1478001,90.7116424 40.2484496,91.1155722 C40.7516975,92.5293268 42.7646889,93.7411164 44.173783,93.438169 C45.7841761,93.1352216 44.6770308,91.721467 45.0796291,90.9136073 C45.0796291,90.9136073 45.1802787,90.8126249 45.1802787,90.9136073 C45.8858322,92.0244144 46.5893727,93.1352216 47.2939197,94.2460287 C45.8858322,94.5489761 45.6835265,95.1548709 46.6900223,96.4676429 C46.991971,96.8715728 47.2939197,97.0735377 47.5958684,97.4774676 C47.9984667,97.9823799 48.5017146,98.4872923 48.5017146,98.8912221 C48.5017146,99.9010468 49.105612,100.203994 49.810159,100.708907 C51.4215586,101.617749 53.0309453,102.223643 54.741988,100.910871 C55.3458855,101.819714 55.7484837,102.526591 56.3523812,103.536416 C57.0569282,102.324626 57.6608256,101.314801 58.1640735,100.506942 C58.9702765,101.112836 59.7744666,101.718731 60.4800201,102.223643 C59.8751162,102.829538 59.0699196,103.334451 58.6673213,104.041328 C58.1640735,105.152135 57.6608256,106.363925 57.6608256,107.575714 C57.560176,108.787504 59.1705692,109.494381 59.9767723,108.585539 C61.3848598,107.070802 62.4930116,105.455082 63.8004495,103.839363 C64.4043469,103.031503 64.8069452,102.122661 65.5124987,101.415784 C67.5254902,99.295152 67.7257828,98.3863098 65.7127914,96.5686254 L71.0482252,96.5686254 C71.3491674,96.9725553 71.8524153,97.6794325 72.4563127,98.4872923 C72.2550136,98.3863098 72.0547209,98.2853273 71.9530648,98.1843449 C70.1413725,96.6696079 68.2290307,97.2755027 67.6251332,99.5980994 C67.5254902,99.9010468 67.4238341,100.304977 67.3231845,100.607924 C66.2160392,102.526591 66.4173384,103.031503 68.4303298,103.73838 C69.2355264,104.041328 70.0417295,104.344275 70.8459196,104.647223 C70.8459196,104.748205 70.74527,104.849188 70.74527,105.051153 C70.2420221,104.95017 69.5384816,105.051153 69.1348768,104.748205 C67.927082,103.839363 66.6186375,104.243293 65.3101931,104.445258 C64.1023982,104.647223 63.4995073,105.657047 63.4995073,106.767854 C63.4995073,107.878662 64.4043469,107.777679 65.2095435,108.080627 C66.3166888,108.484556 67.3231845,109.191434 68.3296802,109.696346 C68.2290307,109.898311 68.2290307,110.100276 68.1283811,110.302241 C67.6251332,110.302241 67.0222423,110.403223 66.6186375,110.302241 C65.9140905,110.100276 65.2095435,109.494381 64.506003,109.393399 C63.8004495,109.292416 62.5926546,109.494381 62.3913555,109.898311 C61.6868085,111.51403 61.1835606,113.331715 60.5796632,115.351364 C61.8881076,115.149399 62.7939538,114.947434 63.5991504,114.846452 C64.2030478,115.553329 64.8069452,116.159224 65.4108427,116.967084 C64.8069452,117.068066 63.9010991,117.270031 63.0959025,117.471996 C62.5926546,117.572978 62.0894068,117.774943 61.5861589,117.976908 C61.7874581,118.481821 61.9897637,118.986733 62.1900564,119.491645 C61.8881076,119.996557 61.4865158,120.50147 61.2842102,120.804417 C60.1770649,120.50147 59.2712188,119.996557 58.4670287,119.996557 C57.1575777,120.09754 55.9507894,120.602452 54.741988,120.804417 C53.2322444,121.107365 51.5212017,122.521119 51.7225009,123.429961 C51.9248065,124.439786 53.5341932,125.045681 55.4475415,124.641751 C56.2517316,124.540768 57.0569282,124.338804 57.8621248,124.439786 C59.2712188,124.641751 60.6803128,124.944698 62.0894068,125.247646 C62.1900564,125.348628 62.1900564,125.449611 62.2907059,125.550593 C60.6803128,125.954523 59.0699196,126.25747 57.2582273,126.762383 C55.3458855,125.045681 54.5406889,125.045681 52.2257487,126.863365 C51.7225009,127.266285 51.219253,127.46926 50.6153556,127.671225 C50.0114581,127.974172 48.6023641,130.599716 48.9053193,131.104629 C49.105612,131.407576 49.5082103,131.609541 49.810159,131.710524 C50.514706,132.013471 51.219253,132.114453 52.0244496,132.417401 C51.3199026,132.820321 50.8166547,133.124278 50.3134068,133.427225 C51.3199026,134.83997 52.4280544,135.042945 53.7354923,134.639015 C54.5406889,134.43705 55.3458855,133.932138 56.151082,133.730173 C56.4540372,133.62919 56.7549795,133.831155 57.0569282,133.932138 C57.0569282,134.134103 57.0569282,134.235085 57.1575777,134.43705 C54.8426376,134.134103 54.037441,135.951787 52.8296461,137.163577 C51.9248065,138.072419 52.1250991,138.981261 53.332894,139.587156 C53.5341932,139.688138 53.8361419,139.789121 54.2387402,139.991086 C52.628347,140.697963 51.3199026,141.606805 49.6088598,140.798945 C49.3069111,140.697963 48.5017146,141.101893 48.4020715,141.505823 C47.9984667,142.61663 49.7095094,144.433304 50.8166547,144.131367 C52.7289966,143.626455 54.741988,143.121542 56.6543299,142.413655 C58.1640735,141.908743 59.5731675,141.101893 61.1835606,140.394006 C61.0829111,141.101893 61.0829111,141.606805 60.983268,142.61663 C61.7874581,142.313682 62.5926546,142.2127 62.9962594,141.80877 C64.1023982,140.697963 65.1088939,139.486173 66.2160392,138.374356 C67.5254902,137.062594 67.6251332,136.354707 66.4173384,134.941962 C65.9140905,134.335058 65.3101931,133.730173 64.8069452,133.124278 C63.9010991,132.114453 62.7939538,131.609541 61.4865158,131.912488 C60.4800201,132.114453 59.8751162,131.710524 59.4735244,130.700699 C59.2712188,130.094804 59.0699196,129.589892 58.8686205,128.983997 C60.5796632,130.498734 62.6933042,131.104629 64.7062957,131.912488 C67.3231845,132.922313 67.927082,133.023296 69.7387743,130.800672 C71.2485178,129.084979 72.858911,127.368278 74.4693041,125.651576 C75.8783982,124.236811 77.3881417,122.925049 78.6965862,121.612277 C78.5969431,122.319154 78.3946375,123.328979 78.1933383,124.236811 C77.4887913,124.540768 76.0807038,124.741724 75.5774559,125.550593 C74.5709602,127.166313 74.0677124,129.185962 73.3621589,131.104629 C73.8654067,131.205611 74.3686546,131.407576 74.8719024,131.508559 C72.0547209,133.830145 72.0547209,133.830145 73.0612166,135.344882 C71.6511161,135.344882 71.449817,136.354707 71.2485178,137.466524 C71.1478683,138.274384 70.5449773,139.082244 70.1413725,139.789121 C69.1348768,141.303858 68.028738,142.818595 66.8199367,144.535297 C68.028738,144.636279 68.9335777,144.737262 69.9400734,144.838244 C69.5384816,146.050034 66.8199367,146.756911 69.336176,148.271648 C68.2290307,149.482428 68.2290307,149.482428 69.2355264,152.209964 C67.3231845,153.623719 65.7127914,155.845333 65.1088939,157.764 C65.0092509,158.16793 65.2095435,158.672842 65.2095435,159.075762 C65.6121418,158.874807 66.1153897,158.672842 66.4173384,158.369895 C66.9205862,157.864982 67.222535,157.259087 67.7257828,156.754175 C67.8264324,156.754175 67.927082,156.855158 68.028738,156.855158 C67.1218854,158.470877 66.3166888,160.085587 65.4108427,161.702316 C65.5124987,161.803298 65.6121418,161.904281 65.8134409,162.005263 C66.3166888,161.904281 66.9205862,161.803298 67.5254902,161.702316 C67.0222423,162.610148 66.5189944,163.217053 66.2160392,163.92393 C65.7127914,165.13471 65.7127914,166.448492 66.7192871,167.357334 C67.7257828,168.367159 68.5319859,167.357334 69.4368255,166.852422 C69.5384816,166.751439 69.6381247,166.751439 70.1413725,166.649447 C69.336176,167.559299 68.7322785,168.164184 68.1283811,168.872071 C67.4238341,169.780913 66.4173384,170.790738 66.1153897,171.901545 C65.2095435,175.232957 64.1023982,178.566388 64.506003,182.100774 C64.6056461,183.211581 64.2030478,183.918458 63.4995073,184.826291 C62.6933042,185.938108 62.3913555,187.350852 61.9897637,188.765617 C61.8881076,188.967582 62.5926546,189.775441 62.8946034,189.775441 C64.506003,189.775441 66.0157466,189.775441 67.6251332,189.472494 C69.4368255,189.169547 69.8394238,188.05874 69.4368255,186.241055 C69.336176,185.736143 69.0352337,185.23123 69.1348768,184.826291 C69.5384816,183.211581 70.1413725,181.595862 70.5449773,179.980142 C70.9465691,178.364423 71.5514731,176.747694 71.5514731,175.132984 C71.6511161,173.113335 72.2550136,171.497615 73.5644645,169.982878 C76.0807038,167.054387 76.0807038,167.054387 74.268005,163.619973 C74.0677124,163.217053 73.8654067,162.813123 73.6641076,162.409193 C72.6576118,160.490526 72.858911,158.470877 73.0612166,156.14828 C74.3686546,157.056113 75.0742081,156.350245 75.677099,155.541376 C76.4822956,154.431578 77.1868426,153.219789 77.9920392,152.108982 C78.3946375,151.604069 78.7972357,151.099157 79.199834,150.695227 C79.3004836,150.79621 79.5017827,150.897192 79.6034388,150.997165 C78.2939879,152.916841 77.0871995,154.734526 75.8783982,156.653193 C75.4757999,157.259087 74.972552,157.965965 74.972552,158.672842 C74.8719024,159.985614 74.972552,161.298386 75.2745007,162.610148 C75.5774559,164.024913 76.9855434,164.933755 78.6965862,164.629798 C77.5904474,162.510176 78.5969431,160.894456 79.8037315,159.278737 C79.904381,159.177754 80.0050306,159.075762 80.1066867,158.874807 C81.1131824,158.16793 81.7160733,158.672842 82.2193212,159.480702 C82.5212699,160.288561 82.7225691,161.197404 83.1261738,162.005263 C83.3264665,162.510176 83.7290648,163.015088 84.0310135,163.419018 C84.4336118,163.015088 85.1391653,162.610148 85.2388084,162.105236 C85.5407571,160.389544 85.7420562,158.672842 85.9433554,156.855158 C86.3459536,156.754175 86.9498511,156.451228 87.6554046,156.14828 C88.5602442,159.480702 92.384928,158.470877 94.3979194,160.389544 C93.089475,160.187579 91.6813875,159.985614 90.4725861,159.379719 C88.9628425,158.672842 87.7550477,158.975789 87.1521567,160.490526 C86.7485519,161.601333 86.2453041,162.712141 85.9433554,163.92393 C85.8427058,164.529825 86.0440049,165.337685 86.4466032,165.741615 C88.1586524,167.256352 88.2582955,168.266176 86.5472528,169.678921 C85.6424131,170.386808 85.7420562,170.89172 86.6489089,171.598598 C87.4530989,172.305475 87.8556972,173.315299 88.5602442,174.022177 C88.862193,174.325124 89.4660904,174.830036 89.7680391,174.728044 C90.8751844,174.426107 91.4790818,175.032001 91.7810305,175.940844 C92.2842784,177.152633 92.4855775,178.465405 92.9888254,179.677195 C93.794022,181.393897 93.794022,181.898809 92.384928,183.110599 C91.7810305,183.615511 91.1781396,184.120423 90.5732357,184.423371 C88.9628425,185.23123 88.1586524,186.544003 88.0569964,188.360677 C87.7550477,191.290178 86.4466032,193.713758 84.4336118,195.934362 C81.9173725,198.863863 81.6164303,203.508047 83.5277656,206.841478 C83.5277656,206.841478 83.4271161,206.942461 83.4271161,207.042433 C82.2193212,206.841478 81.8167229,205.831654 81.5147742,204.720846 C81.1131824,203.105127 79.904381,202.701197 78.6965862,204.012959 C78.2939879,204.517872 78.0936952,205.427724 78.0936952,206.134601 C78.2939879,209.467022 80.4076289,211.890601 82.4206203,214.314181 C83.0245178,215.021058 83.7290648,215.727935 84.1326696,216.635768 C84.5342614,217.54562 84.3329622,218.655417 84.7355605,219.565269 C85.0375092,220.272146 85.6424131,220.878041 86.3459536,221.382953 C86.6489089,221.584918 87.3524494,221.281971 87.8556972,221.281971 C87.7550477,220.575094 87.7550477,219.868216 87.4530989,219.262321 C86.8492015,217.747584 85.9433554,216.33383 85.3394579,214.819093 C85.1391653,214.314181 85.4401075,213.405338 85.8427058,213.001409 C86.4466032,212.395514 87.2517998,211.991584 88.0569964,211.688637 C88.3589451,211.586644 88.862193,211.688637 89.2647912,211.890601 C89.9693382,212.395514 90.6748917,213.203374 91.3784323,213.405338 C93.3914237,214.011233 94.8005177,215.324005 95.907663,217.040707 C96.7138661,218.454462 98.1219536,219.060357 99.5310476,219.565269 C100.839492,219.969199 101.443389,219.565269 101.544039,218.150505 C101.544039,216.939725 101.443389,215.727935 101.544039,214.516146 C101.644689,213.506321 101.34274,212.698461 100.537543,211.991584 C100.034295,211.586644 99.9336459,210.779794 99.6316972,210.071907 C99.7333532,209.971935 99.9336459,209.971935 100.034295,209.870952 C100.638193,210.274882 101.243097,210.981759 101.845988,211.081732 C103.858979,211.385689 105.066774,212.799444 106.375218,214.213198 C107.683663,215.727935 107.985612,215.727935 109.092757,214.011233 C110.199902,215.828918 111.709646,214.516146 113.01809,214.415163 C115.031082,214.213198 114.930432,212.395514 115.43368,211.284707 C116.440176,211.081732 117.347028,210.981759 118.251868,210.880777 C118.956415,210.779794 119.660962,210.57682 120.366516,210.678812 C121.975902,210.880777 122.379507,210.678812 122.5798,209.062083 C122.781099,207.75032 122.680449,206.336566 122.781099,205.225759 C125.096039,205.427724 127.20968,205.629689 129.323321,205.730671 C131.537612,205.730671 133.751902,205.527696 135.967199,205.427724 C135.967199,205.527696 135.967199,205.730671 136.066842,205.831654 C135.664244,205.932636 135.261646,206.134601 134.758398,206.134601 C133.852552,206.235583 133.047355,206.235583 132.141509,206.134601 C130.833065,206.032609 130.128517,206.639513 130.027868,207.952285 C130.027868,208.255233 129.928225,208.55717 129.826569,208.861127 C127.612278,208.052258 127.10903,208.356215 126.505133,210.678812 C126.303834,211.486672 126.102535,212.294531 126.102535,213.101381 C126.001885,214.718111 125.498637,216.030883 124.190193,217.040707 C123.686945,217.444637 123.386003,218.252497 123.183697,218.959374 C122.5798,220.878041 122.277851,222.89769 121.573304,224.816357 C121.070056,226.129129 120.969406,227.138954 121.774603,228.248751 C123.284347,230.2684 124.693441,232.28805 126.203184,234.307699 C126.505133,234.712639 126.908738,235.217551 126.908738,235.620471 C126.706432,237.337173 127.712928,238.649945 128.618774,239.963727 C130.229167,242.386296 130.329817,242.386296 132.242159,240.266674 C132.342808,240.164682 132.444464,240.164682 132.947712,239.963727 C132.444464,241.478464 132.040859,242.891209 131.638261,244.203981 C131.235663,245.618745 132.040859,247.537412 133.248654,247.940332 C134.758398,248.445244 135.060347,247.0325 135.563594,246.22363 C136.470447,244.910858 137.173988,243.498113 137.980191,242.184331 C139.790876,244.104008 139.790876,244.104008 142.810364,241.881384 C143.012669,242.791236 143.213968,243.699068 143.515917,244.507938 C143.917509,245.517763 143.515917,246.22363 142.810364,246.930507 C140.898022,248.748192 140.898022,248.748192 142.407765,251.071798 C142.509421,251.172781 142.509421,251.374746 142.609064,251.777666 C141.200977,252.38457 139.691233,252.989455 138.281133,253.697342 C137.777885,253.899307 137.073338,254.504192 137.073338,254.80714 C137.274637,257.231729 137.375287,259.75629 138.079834,262.077877 C138.483438,263.492642 139.287629,264.805414 138.784381,266.320151 C138.281133,267.834888 137.576586,269.248642 136.67074,270.561414 C135.967199,271.671211 136.066842,272.379099 136.771389,273.388923 C137.777885,274.802678 138.583082,276.317415 139.489934,277.832152 C137.677235,277.528194 134.457456,278.235072 134.1545,279.346889 C133.751902,280.962608 135.160996,281.769458 136.066842,282.881275 C136.268141,283.08223 136.470447,283.184222 136.57009,283.386187 C136.872039,283.992082 137.073338,284.596967 137.375287,285.203872 C137.274637,285.303844 137.073338,285.506819 136.973695,285.606792 C135.463951,284.798932 133.954208,284.194047 132.544107,283.184222 C130.732415,281.87145 128.921729,282.174398 127.10903,282.982257 C125.699936,283.587142 124.190193,284.092055 122.680449,284.596967 C120.969406,285.203872 119.560312,285.101879 118.251868,283.587142 C117.647971,282.881275 116.742124,282.376363 115.634979,283.08223 C115.837285,283.587142 116.037577,284.092055 116.340533,284.798932 C113.824293,285.708784 111.407697,286.616616 108.589509,287.626441 C109.295063,286.516644 109.897954,285.910749 109.998603,285.203872 C110.301558,283.992082 109.394706,283.284195 108.186911,283.689135 C105.97262,284.496994 105.871971,284.496994 104.865475,282.27437 C104.664176,281.769458 104.462877,281.264546 104.160928,280.759633 C103.256088,278.438046 103.256088,278.438046 100.739849,278.538019 C100.436894,278.538019 100.134945,278.538019 99.8329963,278.640011 C96.61221,278.942959 96.61221,278.942959 95.8070134,282.072405 C95.3037656,283.992082 95.0018168,284.092055 93.2907741,283.284195 C92.9888254,283.184222 92.6878832,283.08223 91.9823297,282.982257 C92.5862271,285.101879 93.9953211,286.011731 95.3037656,286.920574 C95.907663,287.323494 96.7138661,287.930398 96.9141587,288.536293 C97.7203618,290.757907 97.8200049,290.85788 99.9336459,290.85788 C99.8329963,291.26282 99.7333532,291.767732 99.5310476,292.575592 C101.040791,292.070679 102.147936,291.767732 103.759336,291.160827 C103.154432,291.969697 102.75284,292.372617 102.550535,292.777557 C102.147936,293.484434 101.644689,294.292294 101.544039,294.999171 C101.443389,296.411916 101.040791,297.523733 100.034295,298.331592 C98.8265006,299.341417 97.6187057,300.451214 96.3102613,301.159101 C93.8946716,302.370891 92.1846353,304.39054 90.6748917,306.612154 C90.271287,307.117067 90.1716439,307.822934 89.9693382,308.529812 C90.6748917,308.631804 91.2777827,308.832759 91.9823297,308.732786 C93.6943789,308.429839 95.3037656,307.822934 97.1154579,308.934751 C98.1219536,309.539636 98.6252014,308.631804 98.4239023,307.621979 C98.021304,306.308197 98.6252014,305.703312 99.6316972,305.298373 C102.550535,304.39054 105.469372,303.480688 108.288567,302.572856 C108.38821,302.773811 108.48886,302.875803 108.589509,303.077768 C107.079765,304.490513 108.589509,306.41019 107.482364,308.024899 C107.079765,308.529812 108.288567,310.247523 108.992107,311.357321 C109.295063,311.76226 110.099253,311.76226 110.804806,312.064198 C110.099253,312.97405 109.394706,313.78191 108.791815,314.791734 C108.48886,315.296647 108.086261,316.003524 108.288567,316.406444 C108.791815,317.720226 109.295063,319.13297 110.301558,320.142795 C110.70315,320.547735 112.112244,319.94083 113.11874,319.840858 C113.219389,319.840858 113.219389,319.94083 113.420689,320.042822 C112.716142,320.445742 112.011595,320.7497 111.508347,321.254612 C110.904449,321.759524 110.301558,322.466402 109.998603,323.172269 C108.48886,326.404718 107.180415,329.736129 105.469372,332.765603 C104.865475,333.775428 103.456381,334.68528 102.249593,334.988227 C100.638193,335.392157 99.430398,336.099035 98.7268575,337.411807 C97.8200049,339.128508 96.5115604,339.329464 94.8005177,339.128508 C93.191131,338.926544 91.6813875,339.431456 90.6748917,340.946193 C90.4725861,341.24914 90.1716439,341.65307 89.7680391,341.754053 C88.4595947,342.258965 87.4530989,343.066825 87.4530989,344.581562 C86.7485519,344.480579 86.145661,344.378587 85.5407571,344.378587 C84.2323126,344.480579 82.8232186,344.581562 81.5147742,344.783527 C80.9108768,344.883499 80.1066867,345.086474 80.0050306,345.388412 C79.3004836,347.611036 77.3881417,348.215921 75.677099,349.125773 C74.3686546,349.83265 73.7647571,350.942447 73.0612166,352.660159 C76.2809964,351.750307 79.100191,351.750307 79.904381,355.486658 C78.5969431,356.39651 77.1868426,357.304343 75.7777486,358.214195 C76.8848939,360.233844 77.5904474,360.435809 79.199834,359.627949 C79.5017827,359.425984 80.0050306,359.425984 80.4076289,359.525957 C81.8167229,359.627949 83.3264665,359.728932 84.7355605,359.828904 C83.3264665,361.142686 81.4141246,360.030869 79.5017827,360.637774 C80.6099345,361.748581 81.6164303,362.555431 82.5212699,363.565255 C83.3264665,364.475107 84.1326696,364.677072 85.2388084,364.17216 C87.1521567,363.263318 89.0634921,362.657423 91.2777827,362.858378 C92.2842784,362.96037 92.8881758,362.455458 92.8881758,361.445633 C92.8881758,359.525957 94.0959707,359.021044 95.7073703,358.81908 C97.8200049,358.516132 100.236601,359.123037 101.845988,356.598475 C101.946637,357.20437 102.047287,357.506307 102.047287,357.709282 C101.443389,359.828904 102.249593,360.838729 104.462877,360.838729 C105.368723,360.838729 106.275575,361.142686 107.079765,361.243669 C107.985612,361.445633 108.891458,361.748581 109.79831,361.950546 C109.79831,362.050518 109.696654,362.353466 109.495355,362.555431 C108.48886,363.76823 107.079765,363.162335 105.772328,363.263318 C105.066774,363.36329 103.959629,363.667248 103.65768,364.17216 C103.053783,365.181985 103.256088,366.494757 104.262584,367.201634 C104.865475,367.604554 106.07327,367.807529 106.576518,367.402589 C108.186911,366.292792 109.696654,366.191809 111.508347,366.594729 C112.414193,366.797704 113.01809,366.392764 112.917441,365.38294 C112.817798,364.475107 113.219389,364.070168 114.024586,363.76823 C116.742124,362.858378 117.245372,362.96037 118.453167,365.584905 C118.856772,366.392764 118.856772,367.302616 119.258364,368.009494 C119.660962,368.817353 120.264859,370.029143 120.969406,370.129116 C122.47915,370.432063 123.284347,371.441888 124.392498,372.250757 C125.196688,372.856652 126.102535,373.361564 127.008381,373.663502 C130.431473,374.775319 133.852552,374.168414 137.274637,373.866477 C137.576586,373.866477 138.079834,373.058617 137.980191,372.856652 C136.771389,370.432063 138.180483,369.322266 140.092825,368.412414 C140.394774,368.312441 140.596073,367.907501 140.797372,367.604554 C141.40127,366.797704 142.105817,366.594729 143.112312,366.594729 C146.233456,366.594729 149.151287,365.989844 151.265934,363.263318 C152.574379,361.647598 154.084122,360.132861 155.49221,358.618124 C155.693509,358.719107 155.795165,358.921072 155.995458,359.021044 C155.39156,359.828904 154.788669,360.738756 154.183765,361.545606 C153.17727,362.858378 151.868825,364.070168 151.265934,365.584905 C150.66103,367.099642 149.855834,367.907501 148.44674,368.514406 C145.829851,369.624203 144.823355,372.553705 142.509421,374.068442 C142.509421,374.068442 142.509421,374.168414 142.407765,374.168414 C142.207473,376.188064 141.803868,378.207713 141.803868,380.329355 C141.803868,381.945074 141.803868,382.046056 140.092825,382.247012 C138.483438,382.349004 136.771389,382.349004 135.362295,383.054871 C133.248654,384.166688 131.437968,384.064696 129.52462,382.853916 C128.418481,382.147039 127.10903,381.237187 125.902242,381.137214 C122.982398,380.935249 119.962911,380.935249 116.943424,381.137214 C113.824293,381.339179 110.804806,382.045047 107.683663,382.549959 C105.97262,382.853916 104.262584,386.186338 105.469372,387.49911 C106.576518,388.912864 106.07327,389.820697 105.066774,390.730549 C104.362227,391.335434 103.65768,391.942338 102.953133,392.44725 C101.845988,393.153118 100.839492,393.355083 99.7333532,392.245286 C98.6252014,391.033496 96.4109109,391.638381 96.2106182,393.153118 C95.907663,395.879645 95.907663,398.707154 95.7073703,401.43368 C95.7073703,402.141567 95.4044151,402.948417 95.0018168,403.353357 C93.4920733,404.968066 91.7810305,406.482803 90.271287,407.99754 C89.9693382,408.300488 89.8686887,408.8054 89.7680391,409.21034 C89.4660904,411.734901 89.4660904,411.734901 86.9498511,412.138831 C84.1326696,412.541751 84.1326696,412.643744 85.7420562,415.066313 L85.6424131,415.168305 C84.9368596,414.864348 84.3329622,414.158481 83.7290648,414.158481 C82.018022,414.259463 81.0115263,414.663393 81.4141246,416.784025 C81.8167229,418.702692 81.1131824,420.620349 79.8037315,420.823323 C78.1933383,421.125261 77.6900905,421.933121 77.4887913,423.347885 C77.4887913,423.751815 77.2874922,424.256727 76.9855434,424.559675 C75.677099,425.972419 74.4693041,427.487156 72.9595606,428.698946 C71.8524153,429.608798 70.4433213,430.11371 69.0352337,430.820588 C68.2290307,429.708771 67.0222423,429.810763 65.8134409,430.315675 C64.506003,430.92157 63.1965521,431.426482 61.9897637,432.13336 C61.4865158,432.436307 60.8816119,433.143184 60.8816119,433.748069 C60.7809623,434.960869 60.983268,436.272631 61.0829111,437.88936 C62.3913555,437.88936 64.1023982,437.88936 65.8134409,437.787368 C66.0157466,437.787368 66.4173384,437.080491 66.4173384,436.677571 C66.5189944,434.757894 67.5254902,434.051017 69.336176,434.859886 C70.1413725,435.262806 71.0482252,435.465781 71.9530648,435.667746 C73.2615093,435.970693 74.1673554,436.677571 74.268005,438.090315 C74.3686546,438.69722 74.1673554,439.50508 74.5709602,440.009992 C75.0742081,440.816842 75.7777486,441.624702 76.6835947,441.928659 C77.79074,442.331579 77.4887913,440.918834 77.8913896,440.413922 C77.9920392,440.311929 77.9920392,440.311929 78.0936952,440.211957 C78.9985349,440.211957 80.1066867,440.109965 80.6099345,439.50508 C81.313475,438.495255 81.8167229,437.182483 80.3069793,436.172658 C80.1066867,436.070666 80.1066867,435.565754 80.1066867,435.364798 C80.6099345,434.252982 81.1131824,433.243157 81.6164303,432.233332 C82.8232186,433.446132 82.7225691,433.446132 84.1326696,431.931395 C85.1391653,430.820588 86.2453041,429.708771 87.9563468,429.810763 C88.3589451,429.810763 88.9628425,429.203858 89.2647912,428.800938 C89.56674,428.296026 89.56674,427.589149 89.668396,427.084236 C90.1716439,424.559675 90.1716439,424.559675 92.7875263,424.76164 C95.5050647,424.962595 98.1219536,425.467507 100.638193,423.95277 C102.550535,422.74199 104.262584,423.447858 106.07327,424.559675 C106.576518,424.862622 107.180415,424.962595 107.683663,425.064587 C107.884962,424.457682 108.186911,423.852797 108.086261,423.347885 C107.985612,422.842973 107.381714,422.540025 107.079765,422.237078 C107.381714,421.428208 107.683663,420.520376 107.985612,419.510551 C108.186911,420.722341 108.186911,421.630173 108.48886,422.438033 C108.992107,423.54985 109.897954,424.659647 110.602501,425.669472 C111.206398,426.579324 112.212894,426.781289 113.01809,426.276377 C114.427184,425.467507 115.334037,426.074412 116.238877,426.982244 C116.943424,427.589149 117.647971,428.194034 118.251868,428.901921 C119.560312,430.416658 120.969406,429.608798 122.47915,429.305851 C123.787594,429.001893 123.889251,427.992069 123.988894,426.982244 C124.089543,425.569499 124.592791,424.457682 126.102535,423.751815 C128.316825,422.639998 128.518124,421.125261 127.10903,419.510551 C127.310329,418.500727 127.813577,417.590875 127.612278,416.883997 C126.908738,414.96634 126.908738,414.764375 128.316825,413.249638 C129.122022,412.541751 129.62527,411.431954 130.229167,410.522102 C131.336312,411.633919 132.342808,410.825049 133.45096,409.61427 C134.3558,408.705427 135.563594,407.897568 136.872039,407.492628 C139.287629,406.685778 141.803868,406.180866 144.220464,405.675954 C144.823355,405.574971 145.628552,405.373006 146.131799,405.574971 C150.359081,406.887743 154.285421,408.8054 157.907799,411.431954 C158.411047,411.834874 159.3179,412.339786 159.719492,412.138831 C160.424039,411.734901 160.927287,410.927042 161.430534,410.220164 C161.63284,409.917217 161.531184,409.512277 161.63284,408.907392 C164.350378,409.61427 167.26821,408.604445 169.58315,410.624094 C169.886105,410.927042 170.691302,410.825049 171.194549,410.725077 C172.300688,410.522102 173.40884,410.320137 174.415336,410.01719 C174.816927,409.917217 175.421831,409.109357 175.320175,409.007365 C174.717284,407.897568 174.816927,405.977891 172.803936,406.079883 C172.602637,406.079883 172.300688,405.675954 172.099389,405.472979 L172.300688,405.070059 C173.912088,405.977891 175.320175,405.775926 176.730276,404.666129 C177.131868,404.363181 177.938071,404.565146 178.441319,404.463154 C179.144859,404.363181 180.253011,404.463154 180.553953,404.060234 C181.661098,402.948417 182.566945,403.453329 183.67409,403.756277 C184.480293,404.060234 185.687081,404.261189 186.391628,403.958242 C187.398124,403.453329 188.102671,402.343532 189.109167,401.636655 C190.016019,400.928768 190.920859,400.2229 191.927355,399.81897 C193.035507,399.414031 193.337455,399.011111 192.631902,398.001286 C192.532259,397.799321 192.430603,397.597356 192.430603,397.394381 C194.343951,398.506198 196.154637,400.121918 198.167628,400.525848 C200.18062,400.928768 202.395917,400.2229 204.408908,398.809146 C204.610207,399.011111 205.113455,399.516023 205.011799,399.516023 C203.90566,401.03076 205.313748,401.131743 206.018295,401.535672 C208.132942,402.545497 208.232585,402.443505 209.944635,400.828795 C210.245577,400.525848 210.748825,400.323883 211.15243,400.2229 C212.662173,399.81897 214.070261,399.414031 215.580004,399.112093 C218.701147,398.607181 221.920927,398.809146 224.940414,397.294409 C225.443662,396.991461 226.349508,397.193426 227.055062,397.394381 C230.67744,398.203251 234.301831,399.011111 237.824566,399.918943 C239.636258,400.323883 241.044346,399.918943 241.850549,398.304234 C243.057337,395.779672 245.171985,395.072795 247.586568,395.072795 C250.002158,395.173777 251.81385,394.163952 252.922002,392.144303 C254.230446,389.820697 255.839833,389.013847 258.457728,390.124654 C260.369064,390.830521 260.973968,390.225636 260.369064,388.205987 C259.865816,386.489285 260.47072,385.47946 261.779164,384.570618 C262.684004,383.964723 263.58985,383.358829 264.596346,382.751924 C266.408038,381.642127 268.321386,380.732275 270.132072,379.521495 C272.748961,377.804793 272.95026,376.996933 272.145064,374.068442 C271.542173,372.048792 270.73597,370.029143 272.245713,368.009494 C272.347369,367.908511 272.347369,367.604554 272.347369,367.403599 C272.447012,366.292792 271.943765,365.888862 270.73597,366.089817 C268.622329,366.494757 266.408038,366.797704 264.295404,367.201634 C262.684004,367.604554 260.772669,367.807529 259.464224,368.614379 C257.249934,369.928161 255.236942,369.119291 253.122295,368.817353 C253.625542,368.716371 254.230446,369.019318 254.733694,368.918336 C255.839833,368.817353 257.047628,368.514406 258.154773,368.211459 C257.954481,366.696722 256.64503,366.191809 255.537884,365.787879 C253.122295,364.778055 251.210959,365.686897 250.707711,368.009494 C249.59956,368.109466 248.392771,368.211459 247.184976,368.312441 C247.485919,365.989844 249.902515,365.888862 251.412258,364.273143 C248.69472,363.869213 246.479423,363.565255 244.165489,363.263318 L244.165489,362.758406 C246.178481,362.455458 248.089816,362.050518 250.102807,361.849563 C252.922002,361.647598 256.444737,359.021044 256.64503,356.598475 C256.746686,355.285703 256.746686,353.971921 256.746686,352.660159 C256.746686,351.145422 255.941489,350.842475 254.531389,351.549352 C254.632038,350.23658 254.833337,349.125773 256.64503,349.529702 C257.047628,349.630685 257.550876,349.125773 258.054124,348.822825 C259.362568,349.932623 260.772669,349.83265 261.980463,348.922798 C263.388551,347.813001 264.596346,346.500229 265.602842,345.086474 C266.609337,343.672719 266.308395,343.066825 264.596346,343.066825 C264.798651,342.157982 266.509694,341.047175 264.596346,340.339288 C264.798651,339.834376 265.099594,339.229491 265.301899,338.623596 C265.401542,338.724579 265.703491,338.926544 265.805147,339.128508 C266.206739,339.734403 266.509694,340.339288 266.911286,341.047175 C267.51619,340.441281 268.119081,339.936368 268.622329,339.229491 C269.125577,338.623596 269.427525,337.814727 269.83113,337.108859 C270.334378,336.401982 270.937269,335.594122 271.641816,335.290165 C273.353865,334.584298 273.654807,333.270516 273.755457,331.655806 C273.956756,328.221392 274.058412,324.788998 275.2652,321.557559 C275.568156,320.647707 275.870104,319.739875 276.171047,318.831033 C276.8766,317.720226 277.278192,315.498611 276.774944,313.176015 Z" id="Stroke-1" stroke="#828385"></path>
                    <path d="M52.5220003,252.428894 C52.6223139,252.126856 52.8229411,251.823811 53.0235684,251.724139 C56.7351717,250.616666 58.7414438,248.200362 59.3433254,244.374547 C59.6442662,242.36096 61.2492839,241.354167 63.255556,241.755877 C63.757124,241.857564 64.258692,241.958243 64.7602601,241.958243 C67.067473,242.058922 69.7759403,239.238894 69.3746859,237.326993 C69.8762539,236.924276 70.6787627,236.622238 70.6787627,236.218514 C71.1803307,233.098461 71.882526,229.977402 70.1771947,226.856342 C69.5753131,225.849549 69.2743722,224.64039 69.1740586,223.433245 C69.1740586,221.520337 67.6693546,219.808789 65.8637097,220.211506 C63.6568104,220.714903 61.0486567,220.513544 59.5439526,222.929848 L59.2430118,222.929848 C58.5408166,222.023734 59.1426982,221.419658 59.7445798,220.916261 C60.8480295,220.010147 62.0517927,219.204713 63.255556,218.197919 C65.0612009,216.687729 65.1615145,216.083653 64.1583784,213.969387 C63.4561832,212.459197 63.1552424,212.358518 62.1521063,213.063273 C61.7508519,212.05648 61.3495975,210.949007 60.7477159,209.942214 C60.2461479,209.0361 59.5439526,208.230665 58.8417574,207.324551 C58.0392486,206.317758 57.1364261,205.310964 58.1395622,203.700095 C57.7383078,203.599416 57.4373669,203.498736 57.1364261,203.498736 C54.8292132,203.297378 54.8292132,202.995339 55.3307813,200.679715 C55.6317221,199.370883 55.5314085,197.860693 55.2304676,196.551862 C54.9295268,195.041672 53.4248228,194.638955 52.0204323,194.840313 C51.2179235,194.940993 50.4154146,194.638955 49.6129058,194.538275 C49.0110242,194.437596 48.4091426,194.034879 47.8072609,193.934199 C44.496912,193.430802 41.2868766,193.128764 38.1771549,195.142351 C36.0705692,196.451183 33.6630427,197.357297 31.1552026,195.847107 C31.054889,195.847107 30.9545754,195.947786 31.054889,195.847107 C30.2523802,197.860693 29.5501849,199.773601 28.7476761,201.988546 C27.0423448,201.887867 25.2367,201.686508 23.4310551,201.485149 L19.4185109,207.324551 C19.1175701,207.928627 19.3181973,208.93542 19.5188245,209.640176 C19.9200789,210.949007 19.6191381,211.653762 18.5156885,212.257838 C17.4122388,212.861915 16.3087892,213.465991 16.108162,214.976181 C16.0078484,215.278219 15.2053395,215.580257 14.7037715,215.781615 C13.7006355,216.184333 12.5971858,216.385691 11.6943634,216.989767 C10.8918545,217.493164 10.4906001,217.795202 9.58777769,217.191126 C8.78526886,216.486371 7.88244642,216.788409 7.481192,217.694523 C6.97962398,218.600637 6.17711515,219.808789 7.58150561,220.614223 C8.78526886,221.318979 9.98903211,221.721696 11.293109,222.325772 C9.6880913,224.037321 7.98276002,225.346152 5.47491992,225.245473 C4.27115667,225.143787 3.46864783,225.74887 2.7664526,226.755663 C2.36519818,227.359739 1.66300295,227.863136 0.960807724,228.265853 C-0.042328319,228.869929 -0.343269132,229.474005 0.459239702,230.380119 C2.36519818,232.694737 4.27115667,234.910689 6.17711515,237.225307 C6.57836956,237.728704 6.97962398,238.535145 7.07993759,239.238894 C7.18025119,240.448053 7.68181921,241.052129 8.78526886,241.152808 C10.6912273,241.252481 11.8949906,242.058922 12.8981266,243.769464 C14.0015763,245.683378 15.4059667,246.086096 17.7131796,245.179982 C18.6160021,244.877944 19.3181973,244.676585 20.0203925,245.48202 C20.5219606,245.985416 21.2241558,246.186775 21.926351,246.589492 C22.1269782,245.985416 22.2272918,245.279654 22.427919,244.575906 L24.0329367,244.575906 C23.3307415,242.662998 24.5345047,242.058922 26.0392088,241.555526 C26.3401496,241.454846 26.5407768,240.749084 26.5407768,240.347373 C26.5407768,239.742291 26.239836,239.038542 26.0392088,238.434466 C25.6379544,237.427673 25.9388952,236.622238 26.8417176,236.218514 C28.4467353,235.514765 29.3495577,234.204927 29.8511258,232.393706 C31.9577115,233.803217 33.6630427,235.211721 34.1646107,237.83039 C34.4655516,239.642618 35.5690012,241.354167 36.4718236,243.065716 C36.6724509,243.468433 37.6755869,243.669792 38.2774685,243.569112 C39.681859,243.367754 40.2837406,243.87115 40.0831134,245.279654 C39.9827998,246.186775 39.681859,247.193568 39.7821726,248.099682 C39.8824862,250.113269 41.0862494,251.019383 42.9922079,250.313621 C44.0956576,249.91191 45.0987936,249.509193 46.3025569,250.113269 C46.6034977,250.313621 47.5063201,249.710552 47.9075745,249.306828 C48.308829,248.905117 48.4091426,248.300034 48.7100834,247.696965 C50.0141602,249.207155 51.1176099,250.616666 52.3213731,252.126856" id="Stroke-3" stroke="#828385"></path>
                    <path d="M31.9473439,60.1077084 C32.3448472,60.4090697 32.7423505,60.6099772 33.1398538,60.9113385 C32.8417263,61.112246 32.6429746,61.2126998 32.5435988,61.3131536 C31.9473439,62.0163299 31.2517131,62.6190525 30.6554582,63.3222289 C31.3510889,63.8244977 32.0467197,64.5276741 32.8417263,64.9294891 C33.7361087,65.431758 34.8292428,65.7331192 35.7236252,66.0344805 C35.0279944,66.7376569 33.9348603,67.3403795 33.9348603,67.9431021 C33.8354845,69.5503623 32.9411021,70.2535387 31.6492164,70.7558075 C30.3573307,71.2580763 30.2579549,72.1621602 31.0529615,73.1666979 C31.4504648,73.6689667 31.9473439,74.1712355 32.444223,74.4725968 C33.6367329,75.1757732 35.7236252,74.7739581 35.7236252,73.8698742 C35.7236252,72.5639753 36.5186318,72.1621602 37.51239,71.7603452 C38.8042757,71.2580763 39.9967856,70.6553538 39.201779,69.1485473 C39.8974097,68.847186 40.891168,68.6462784 40.891168,68.4453709 C40.891168,67.4408333 40.5930405,66.4362956 40.4936647,65.7331192 C42.4811812,67.541287 43.673691,68.0435559 44.7668251,67.3403795 C46.2574624,66.4362956 46.9530932,64.8290354 46.5555899,63.4226826 C48.5431064,63.2217751 48.9406097,62.5185988 48.741858,60.2081622 C48.5431064,58.3999944 48.2449789,58.1990868 45.7605833,58.2995406 C46.6549657,57.8977255 47.7480998,57.7972718 48.4437306,57.0940954 C49.0399855,56.4913728 49.0399855,55.3863814 49.4374888,54.4822975 C50.7293745,54.6832051 52.2200118,56.4913728 53.6112734,54.4822975 C54.3069041,53.3773061 54.5056558,52.2723147 53.5118976,50.7655082 C53.0150184,51.0668695 52.8162668,51.5691383 52.6175151,52.0714072 C52.0212602,53.5782136 51.027502,53.2768523 50.0337437,52.573676 C50.0337437,50.865962 51.4250053,50.2632394 52.4187635,49.4596093 C53.4125217,48.5555254 54.0087767,47.852349 53.2137701,46.4459963 C53.0150184,46.144635 53.1143943,45.6423662 53.2137701,45.3410049 C54.1081525,43.0305683 53.7106492,40.9210392 51.7231327,38.9119639 C49.5368646,40.8205854 47.2512207,42.729207 45.1643284,44.838736 C43.7730669,46.144635 42.3818053,46.9482651 40.4936647,46.3455425 C40.0961614,46.2450888 39.201779,46.4459963 39.0030273,46.7473576 C38.1086449,48.6559791 37.4130142,50.7655082 38.9036515,52.7745835 C39.201779,53.1763986 39.4005306,53.6786674 39.6986581,54.28139 C37.6117658,52.975491 37.2142625,53.2768523 36.3198801,56.8931879 C36.1211285,55.4868352 36.0217526,54.3818438 35.823001,53.3773061 C35.6242493,51.8704996 34.3323636,52.1718609 33.4379812,52.0714072 C33.1398538,51.9709534 32.3448472,52.573676 32.2454713,52.7745835 C32.2454713,53.8795749 31.9473439,54.5827513 30.8542098,54.5827513 C30.754834,54.5827513 30.5560823,54.9845663 30.4567065,55.1854739 C29.6616999,56.8931879 30.2579549,58.9022632 31.9473439,60.1077084 Z" id="Stroke-5" stroke="#828385"></path>
                    <path d="M44.7426822,165.357731 C44.9377206,166.963038 44.645163,168.367681 43.7674903,169.671993 C43.4749328,170.073319 43.1823752,170.574978 43.1823752,171.076636 C43.084856,171.678626 43.2798944,172.380948 43.3774136,172.982938 C43.8650095,172.681943 44.5476438,172.481279 44.8402014,171.979621 C45.7178741,170.875973 46.4005084,169.671993 47.2781811,168.568344 C47.6682579,168.167018 48.3508922,167.966354 48.9360073,167.765691 C49.0335265,167.966354 49.1310457,168.167018 49.2285649,168.267349 C48.8384881,168.769008 48.3508922,169.270666 48.0583346,169.872656 C47.8632962,170.173651 47.765777,170.875973 47.9608154,171.076636 C49.326084,172.882606 49.4236032,172.882606 48.1558538,174.688576 C47.9608154,174.989571 47.6682579,175.390898 47.6682579,175.691893 C47.6682579,176.293882 47.8632962,176.996204 47.9608154,177.598194 C48.5459305,177.397531 49.1310457,177.297199 49.6186416,176.996204 C50.5938335,176.394214 51.4715062,175.591561 52.446698,174.989571 C55.0797161,173.584928 55.9573888,170.073319 54.494601,167.364364 C54.007005,166.461379 53.7144475,165.357731 53.5194091,164.254083 C53.2268515,162.749108 53.2268515,161.344464 53.0318132,159.83949 C52.934294,159.739158 52.7392556,159.638826 52.6417364,159.638826 C51.0814294,161.043469 49.6186416,162.448113 48.3508922,163.652093 C47.765777,163.150434 47.2781811,162.448113 46.8881044,162.448113 C45.5228357,162.648776 44.645163,163.852756 44.7426822,165.357731 Z" id="Stroke-7" stroke="#828385"></path>
                    <path d="M122.964759,15.9159039 C123.465937,18.2731085 123.967115,18.4780828 126.072061,17.3507241 C125.971825,18.7855443 126.673474,19.8104159 127.976536,20.4253388 C129.279598,21.0402617 129.68054,19.8104159 130.482425,19.2979801 C130.883367,18.9905186 131.785487,18.9905186 132.186429,19.1954929 C134.792553,21.4502104 136.19585,21.5526975 138.701739,19.4004672 C139.202917,18.9905186 139.202917,17.8631599 139.503623,17.0432626 C138.90221,16.9407755 138.300797,16.8382883 137.498912,16.7358012 C137.60015,15.9159039 137.09797,15.300981 135.895144,15.300981 C135.594437,15.300981 135.193495,15.1984938 135.093259,14.9935195 C134.391611,12.9437764 133.28902,14.0711351 132.186429,14.5835709 C131.384545,14.9935195 130.58266,15.1984938 129.780776,15.5059553 C129.68054,15.4034681 129.580305,15.1984938 129.480069,15.0960067 C129.881011,14.5835709 130.281954,14.0711351 130.783131,13.6611865 C131.685251,13.0462635 131.685251,12.3288534 131.184073,11.406469 C130.181718,9.45921307 128.177007,9.04926444 126.573239,8.02439288 C126.372768,7.92190572 126.072061,8.02439288 125.87159,8.12688004 C123.465937,8.84429013 122.263111,10.6890589 122.463582,13.2512379 C122.764288,14.1736223 122.864524,15.0960067 122.964759,15.9159039 Z" id="Stroke-9" stroke="#828385"></path>
                    <path d="M93.7620006,237.118286 C93.4660896,237.836357 93.1701787,238.65701 92.6769938,239.067336 C90.6056172,240.606061 89.2246995,242.452529 89.0274256,245.222233 C88.9287886,246.248049 88.4356037,247.172309 88.3369667,248.198125 C88.2383297,248.91517 88.5342407,249.736849 89.4219735,249.325497 C90.4083433,248.812589 91.2960761,248.812589 92.3810829,249.120333 C92.7756308,249.223941 93.3674526,248.91517 93.6633636,248.607425 C97.1156578,245.837722 99.4829453,242.144785 101.258411,238.144102 C101.455685,237.734801 101.357048,236.605378 101.159774,236.502796 C99.8774933,235.989888 100.173404,234.862517 100.173404,233.836701 L100.173404,231.476298 C96.8197469,232.092813 94.9456443,234.040838 93.7620006,237.118286 Z" id="Stroke-11" stroke="#828385"></path>
                    <path d="M54.1956522,164.032295 C54.2969352,165.268593 54.8033506,166.607917 55.4110491,167.741191 C56.1200306,168.977489 57.2341444,168.874464 57.9431259,167.638166 C58.7533905,166.195817 59.6649382,164.753469 60.3739197,163.208095 C61.8931658,160.117349 63.3111288,156.923577 64.7290919,153.729805 C64.931658,153.214681 65.2355072,152.699557 65.2355072,152.081407 C65.2355072,151.669308 65.0329411,151.051158 64.7290919,150.742084 C64.5265257,150.536034 63.8175442,150.742084 63.513695,151.051158 C61.3867504,153.317706 59.2598059,155.584253 57.2341444,157.850801 C56.626446,158.46895 56.9302952,158.984075 57.6392767,159.29315 C57.9431259,159.396174 58.2469751,159.499199 58.9559567,159.705249 C57.5379936,160.426423 56.4238798,160.941548 55.4110491,161.765747 C54.8033506,162.280871 54.1956522,163.31112 54.1956522,164.032295 Z" id="Stroke-13" stroke="#828385"></path>
                    <path d="M24.9015519,97.3297655 C26.0447368,96.4492936 26.4844232,94.1013687 25.6929876,93.5143875 C24.2859909,92.340425 22.8789942,91.0686324 21.2961229,89.7968397 C21.2961229,90.2859908 21.2081856,90.9708022 21.2961229,91.4599532 C21.6478721,93.1230667 21.4719975,94.5905198 20.6805619,96.155803 C19.8011889,97.9167467 19.8891262,99.7755206 20.8564364,101.536464 C21.2081856,102.123446 21.4719975,102.808257 21.7358094,103.493068 C22.3513704,104.960521 23.6704298,105.156182 24.7256774,104.08005 C25.9567995,102.808257 25.1653638,101.927785 24.6377401,101.438634 L24.6377401,97.6232561 C24.7256774,97.4275957 24.8136146,97.4275957 24.9015519,97.3297655 Z" id="Stroke-15" stroke="#828385"></path>
                    <path d="M200.946139,403.207235 C200.529008,403.021669 200.111876,402.836103 199.694745,402.743321 C198.026219,402.279407 196.25341,401.908275 194.689167,401.351579 C193.229206,400.793954 192.394943,401.166013 191.456397,402.185696 C190.8307,402.927958 189.787871,403.577438 188.849325,403.949497 C187.493648,404.505266 186.346536,405.062891 185.825122,406.454633 C185.40799,407.66081 185.825122,408.216579 187.180799,407.752665 C189.37074,407.103185 191.143549,407.752665 192.916358,408.774203 C193.959186,409.422755 195.210581,409.794814 195.940561,410.072235 C197.817653,410.072235 198.756199,409.3309 198.964765,407.66081 C199.069047,406.360922 199.694745,405.619588 200.946139,405.062891 C201.988968,404.505266 201.988968,403.855787 200.946139,403.207235 Z" id="Stroke-17" stroke="#828385"></path>
                    <path d="M72.544967,172.84579 C72.0437115,174.461151 72.2442137,175.874591 72.8457203,177.489951 C73.1464736,178.297631 73.547478,179.307232 73.4472269,180.114912 C73.1464736,182.134112 73.6477291,183.244672 75.6527512,184.052353 C77.3570199,184.759073 78.7605353,184.759073 80.2643018,184.052353 C80.5650551,183.850433 81.0663106,183.345633 80.9660595,183.244672 C80.3645529,181.831232 80.6653062,180.619712 81.2668128,179.408192 C81.3670639,179.206272 81.1665617,178.600511 80.9660595,178.398591 C79.9635485,177.288031 79.9635485,175.975551 79.8632974,174.562111 C79.6627952,171.63427 78.5600331,170.72563 75.5525001,170.62467 C73.8482313,170.52371 73.1464736,171.12947 72.544967,172.84579 Z" id="Stroke-19" stroke="#828385"></path>
                    <path d="M21.6143876,80.9132424 C22.2283061,81.1032147 23.1491839,80.9132424 23.7631024,81.1982008 C26.1164566,82.5280069 28.3674911,81.293187 30.7208453,81.293187 C30.9254848,81.293187 31.4370836,80.9132424 31.4370836,80.7232701 C31.4370836,80.5332978 31.0278046,80.2483393 30.8231651,80.058367 C30.4138861,79.7734086 30.0046071,79.4884501 29.5953281,79.2034917 C29.6976478,79.1085055 29.7999676,79.0135194 29.9022873,78.9185332 C30.5162058,79.2984778 31.1301243,80.1533532 31.8463626,79.0135194 C32.3579613,78.0636579 32.1533218,77.493741 31.1301243,77.1137964 C30.7208453,76.923824 30.2092466,76.7338517 30.0046071,76.4488933 C29.3906886,75.5940179 28.5721306,75.7839902 27.7535726,76.0689487 C27.3442936,76.258921 26.9350146,76.5438794 26.5257356,76.6388656 C25.4002184,76.923824 24.3770209,77.1137964 23.2515036,77.2087825 C22.6375851,77.3037687 21.7167074,76.8288379 21.5120679,77.0188102 C20.8981494,77.8736856 20.3865507,78.9185332 20.0795914,79.9633809 C19.9772717,80.058367 21.0004691,80.7232701 21.6143876,80.9132424 Z" id="Stroke-21" stroke="#828385"></path>
                    <path d="M125.439112,25.1456411 C126.176856,26.206532 126.914599,26.206532 127.652343,25.1456411 C128.390086,24.0847501 128.851176,23.0238592 128.021215,21.7861531 C127.099035,20.2832243 125.807984,19.3107409 123.686971,18.9571106 C123.410317,19.1339258 122.764792,19.3991485 122.580356,19.7527788 C122.39592,20.1948167 122.39592,20.9020773 122.580356,21.2557076 C123.594753,22.5818213 124.516933,23.907935 125.439112,25.1456411 Z" id="Stroke-23" stroke="#828385"></path>
                    <path d="M143.293424,4.73927765 C145.360588,4.47202515 145.540342,2.51217349 146.528986,1.4431635 C146.439109,1.26499516 146.349232,1.175911 146.169479,0.997742664 C145.450465,1.35407933 144.641575,1.79950016 144.012438,2.15583683 C143.832684,1.79950016 143.652931,1.4431635 143.473178,1.175911 C143.113671,1.35407933 142.574411,1.53224766 142.394657,1.88858433 C141.76552,2.86851016 141.22626,3.84843599 140.687,4.91744599 C140.507246,5.18469848 140.597123,5.63011932 140.507246,5.98645598 C140.866753,5.98645598 141.316137,5.98645598 141.585767,5.80828765 C142.30478,5.45195098 142.754164,4.82836182 143.293424,4.73927765 Z" id="Stroke-25" stroke="#828385"></path>
                    <path d="M80.8950996,168.583278 C81.1341268,168.493469 81.2138025,167.954617 81.2934783,167.864808 C81.2934783,165.439973 79.9389908,162.835521 78.3454761,161.847625 C77.6283944,161.398581 77.15034,161.668008 77.3096915,162.566095 C77.6283944,164.811312 78.5048275,166.787104 79.9389908,168.40366 C80.178018,168.583278 80.6560724,168.673086 80.8950996,168.583278 Z" id="Stroke-27" stroke="#828385"></path>
                    <path d="M31.6074396,132.509789 C31.0454106,132.680843 30.1086957,133.194006 30.1086957,133.536115 C30.1086957,134.30586 30.4833816,135.161132 31.0454106,135.588768 C31.3264251,135.84535 32.4504831,135.588768 33.0125121,135.246659 C34.2302415,134.562441 35.260628,133.707169 36.384686,132.937425 C36.6657005,132.76637 36.946715,132.509789 37.134058,132.253207 L37.0403865,131.740044 C36.4783575,131.740044 35.822657,131.654516 35.260628,131.740044 C34.0428986,131.911098 32.8251691,132.16768 31.6074396,132.509789 Z" id="Stroke-29" stroke="#828385"></path>
                    <path d="M44.4833707,124.890545 C43.0806241,126.053028 41.6778775,127.215511 40.3686474,128.461029 C40.1816145,128.627098 40.088098,129.125305 40.1816145,129.374408 C40.2751309,129.540477 40.7427131,129.623512 41.0232625,129.706546 C41.6778775,129.540477 42.4260091,129.540477 42.8000748,129.208339 C43.9222721,128.29496 45.0444694,127.298546 45.9796338,126.219097 C46.2601831,125.886959 46.0731502,125.305717 46.1666667,124.80751 C45.5120516,124.80751 44.7639201,124.558407 44.4833707,124.890545 Z" id="Stroke-31" stroke="#828385"></path>
                    <path d="M18.5534026,111.688821 C18.8239046,111.865779 19.3649086,111.600342 19.7255779,111.423383 C20.3567492,111.069467 21.0780879,110.80403 21.6190918,110.273155 C22.2502632,109.653802 23.2421038,108.680532 23.0617691,108.238137 C22.6109325,107.264867 21.6190918,106.557034 20.8075859,105.760722 C19.8157452,107.353346 19.0042392,108.769011 18.1927333,110.096197 C18.1025659,110.273155 18.0123986,110.450114 18.1025659,110.627072 C18.1927333,110.980988 18.2829006,111.511862 18.5534026,111.688821 Z" id="Stroke-33" stroke="#828385"></path>
                    <path d="M47.866047,107.404819 C47.1032779,108.093327 46.9337736,108.953961 47.5270385,109.814595 C47.866047,110.244913 48.1203034,110.847357 48.5440641,111.105547 C49.0525769,111.449801 49.9000982,111.880118 50.408611,111.707991 C51.0866281,111.363737 51.5103887,110.589166 52.1884058,109.728532 C51.4256366,108.781834 50.9171238,107.835136 50.1543546,107.232692 C49.4763376,106.458121 48.6288162,106.716311 47.866047,107.404819 Z" id="Stroke-35" stroke="#828385"></path>
                    <path d="M133.00507,3.36689984 C133.683231,3.55394983 134.361391,3.55394983 135.136432,3.92804981 C135.427073,4.11509981 136.008353,3.83452482 136.492754,3.74099982 C136.395874,3.36689984 136.395874,2.80574987 136.105233,2.61869988 C134.555152,1.77697492 132.90819,0.935249956 131.067468,0 C130.776828,0.467624978 130.389307,0.935249956 130.486187,1.02877495 C131.164348,1.87049991 131.939389,3.08632485 133.00507,3.36689984 Z" id="Stroke-37" stroke="#828385"></path>
                    <path d="M57.6463568,93.7878104 C57.822471,93.3540092 58.3508134,92.6599274 58.1746993,92.3996467 C57.3821856,91.1850034 57.3821856,90.0571204 57.7344139,88.7557169 C57.822471,88.5821965 57.6463568,88.3219158 57.5582998,87.8013544 C56.9419003,88.3219158 56.2374438,88.6689567 56.2374438,89.1027579 C56.1493867,90.4909216 56.2374438,91.8790853 56.4135579,93.1804888 C56.4135579,93.4407695 57.2060715,93.6142899 57.6463568,93.7878104 Z" id="Stroke-39" stroke="#828385"></path>
                    <path d="M138.5,7.98194131 C138.773715,7.65385017 139.138669,7.32575904 139.229908,6.91564512 C139.412385,6.34148563 139.503623,5.76732614 139.503623,5.27518943 C139.503623,4.86507551 139.503623,4.45496159 139.321146,4.04484767 C139.229908,3.96282488 138.5,3.96282488 138.226285,4.12687045 C137.952569,4.37293881 137.770092,4.86507551 137.678854,5.27518943 C137.587615,5.76732614 137.496377,6.34148563 137.496377,6.83362233 C137.496377,7.16171347 137.678854,7.57182739 137.861331,7.89991853 C138.043808,7.89991853 138.226285,7.89991853 138.5,7.98194131 Z" id="Stroke-41" stroke="#828385"></path>
                    <path d="M24.9150241,84.8081264 C24.4720063,85.0025859 23.7631778,84.9053561 23.4087636,85.1970453 C22.7885386,85.7804236 22.0797101,86.5582614 22.0797101,87.3360992 C22.0797101,88.5028558 22.8771422,89.475153 24.1175921,89.7668422 C25.2694384,89.9613016 26.8643025,89.1834639 27.0415096,88.2111666 C27.3073203,86.8499506 26.5984918,85.9748831 25.6238526,85.294275 C25.358042,85.0998156 25.1808348,84.9053561 24.9150241,84.8081264 Z" id="Stroke-43" stroke="#828385"></path>
                    <path d="M29.1050725,83.0977104 C27.9845522,83.0026873 27.1041434,82.8126411 26.2237346,82.8126411 C25.8235487,82.8126411 25.1832514,83.0977104 25.1032143,83.3827797 C25.0231771,83.7628722 25.3433257,84.3330109 25.5034001,84.8081264 C26.7839947,84.7131033 28.1446265,84.9981726 29.1050725,83.0977104 Z" id="Stroke-45" stroke="#828385"></path>
                    <path d="M51.4275921,156.350786 L54.1956522,152.017954 C54.0931314,151.927687 53.9906107,151.747152 53.8880899,151.656885 C53.2729655,151.747152 52.2477581,151.656885 52.0427166,152.017954 C51.2225506,153.281697 50.7099469,154.725974 50.1973432,156.079984 C50.0948224,156.260519 50.5049054,156.621588 50.7099469,156.621588 C50.9149884,156.711856 51.3250714,156.531321 51.4275921,156.350786 Z" id="Stroke-47" stroke="#828385"></path>
                    <path d="M135.197756,26.9390519 C135.294881,25.2447719 135.392006,23.5504919 135.48913,21.9503386 C134.129383,22.1385919 132.478261,23.5504919 132.478261,24.5858853 C132.478261,25.7154053 133.740884,26.8449253 135.197756,26.9390519 Z" id="Stroke-49" stroke="#828385"></path>
                    <path d="M130.739795,8.88898009 C131.189082,9.49367262 132.199978,9.73554963 132.98623,9.97742664 C133.098551,9.97742664 133.323195,9.61461112 133.435516,9.49367262 C133.772481,8.52616458 132.199978,6.10739449 131.07676,5.98645598 C130.964439,5.98645598 130.627474,6.10739449 130.627474,6.10739449 C130.515152,7.07490252 130.290509,8.16334907 130.739795,8.88898009 Z" id="Stroke-51" stroke="#828385"></path>
                    <path d="M56.1952488,115.213021 C56.1952488,114.687894 55.3475243,114.267791 54.9842138,113.742664 C54.0153857,114.582868 52.9254542,115.423072 52.1988331,116.473328 C52.0777296,116.578353 53.0465577,117.418558 53.2887647,117.733634 C54.9842138,117.733634 56.3163523,116.578353 56.1952488,115.213021 Z" id="Stroke-53" stroke="#828385"></path>
                    <path d="M142.514493,9.20140456 C143.012131,10.0882869 143.509769,10.9751693 144.131817,11.7511914 C144.256227,11.972912 144.753865,11.972912 145.127094,11.972912 C145.251504,11.972912 145.624733,11.5294708 145.500323,11.4186105 C145.127094,10.1991472 144.505046,9.20140456 143.136541,8.97968397 C142.887722,8.97968397 142.763312,9.09054427 142.514493,9.20140456 Z" id="Stroke-55" stroke="#828385"></path>
                    <path d="M161.583333,162.632054 C160.891442,163.451716 161.286808,162.529596 160.891442,163.451716 C160.496075,164.373835 161.484492,164.988581 160.891442,165.193496 C160.298392,165.398412 159.804183,165.193496 159.804183,165.193496 L159.804183,166.013158 L159.309975,166.832819 L159.309975,167.447565 L158.716925,168.779515 L157.629666,169.291803 L156.344724,170.111465 L155.455149,170.726211 L155.455149,171.545872 L156.147041,173.390111 L156.838933,174.722061 L157.431983,175.541722 L157.926191,176.463841 L158.4204,177.693333 L159.01345,178.512995 L158.914608,180.254775 L157.82735,181.074437 L156.542408,181.996556 L155.850516,182.508844 L155.356308,183.635879 L154.664416,184.45554 L153.280632,183.943252 L152.489899,184.04571 L151.600324,184.967829 L150.315382,185.78749 L149.62349,186.607152 L148.43739,188.246475 L147.943182,188.758763 L147.448973,189.680882 L147.448973,190.398086 L147.448973,191.217747 L145.966348,192.139867 L145.076773,192.85707 L144.187198,193.676732 L143.001098,194.906224 L141.913839,195.623428 L141.123106,196.750462 L139.838164,197.979954 L139.245114,198.799616 L137.762489,199.619277 L136.675231,200.541396 L136.675231,201.873346 L136.675231,203.102839 L136.082181,203.820042 L135.48913,204.537246" id="Stroke-57" stroke="#828385" stroke-dasharray="3"></path>
                    <path d="M139.503623,278.370203 L141.587768,280.790694 C141.587768,280.790694 142.312373,281.568709 143.218129,282.260278 C144.123885,282.951847 145.119311,283.556969 145.48252,283.297631 C146.116549,282.605198 139.503623,278.370203 139.503623,278.370203 Z" id="Stroke-59" stroke="#828385"></path>
                    <path d="M143.358586,282.361174 L140.342821,283.661574 L141.071016,283.461512 L139.822682,283.861635 L138.677337,284.760912 L138.677337,285.362096 L139.822682,285.86225 L141.071016,286.261373 L142.631432,287.16265 L142.631432,287.962896 L143.878725,289.063234 L144.398864,290.063542 L144.919003,290.863788 L144.919003,291.664034 L145.439142,292.664342 L145.439142,293.964741 L145.439142,295.06508 L145.439142,295.764295 L146.064349,296.665572 L146.479419,297.365787 L147.207614,297.365787 L148.144904,298.066002 L148.665043,298.066002 L149.70532,298.066002 L149.70532,298.765217 L149.70532,300.066618 L149.70532,300.866864 L148.144904,301.66711 L147.624765,301.66711 L146.89553,301.066925 L146.064349,300.36671 L144.919003,300.066618 L144.191849,300.466741 L142.526364,300.166648 L141.79817,300.066618 L140.86296,300.666802 L139.302544,301.166956 L138.677337,302.067233 L138.677337,303.167571 L138.677337,304.668032 L138.157198,305.76737 L138.782405,306.96874 L140.342821,307.668955 L141.486086,308.36917 L142.526364,309.169416 L142.631432,309.869632 L142.526364,310.669878 L141.591155,311.570154 L140.86296,312.769523 L141.278031,313.470739 L141.383099,314.170954 L140.86296,314.671108 L140.133725,315.571385 L139.093448,316.571692 L138.157198,317.171877 L138.573309,317.672031 L138.782405,318.572307 L139.613587,318.97243 L141.071016,318.271215 L142.111293,318.372246 L142.526364,318.97243 L142.943516,319.672646 L142.318309,320.372861 L140.965948,321.173107 L139.717614,321.673261 L137.533031,322.272445 L136.492754,322.973661 L136.492754,324.073999 L136.492754,325.174337 L137.533031,325.773521 L138.262266,326.574768 L139.613587,327.475045 L140.445809,327.975198 L142.318309,328.375321 L143.566642,328.375321 L143.878725,328.975506 L143.566642,329.875783 L143.046503,331.376244 L142.111293,332.376552 L141.486086,333.977044 L140.237753,335.377474 L139.510599,336.776904 L139.613587,337.777212 L139.822682,338.578458 L139.822682,339.578766 L140.237753,341.179258 L140.237753,342.379627 L140.550877,343.779057 L141.174003,344.680334 L142.006225,345.779672 L143.046503,346.77998 L143.566642,347.881319 L144.294836,348.381472 L145.95928,347.780288 L147.104626,347.481196 L148.144904,348.381472 L148.873098,349.181718 L149.70532,350.182026 L151.056641,351.482426 L151.993931,351.98258 L153.034209,351.98258 L153.034209,352.781825 L153.034209,354.483349 L153.034209,356.884087 L153.034209,357.884394 L153.034209,358.68464 L153.554348,359.484886 L153.554348,360.185102" id="Stroke-61" stroke="#828385" stroke-dasharray="3"></path>
                    <path d="M226.317529,334.243792 C238.788048,334.243792 248.898551,344.294506 248.898551,356.693499 C248.898551,369.091498 238.788048,379.142212 226.317529,379.142212 C213.847009,379.142212 203.735507,369.091498 203.735507,356.693499 C203.735507,344.294506 213.847009,334.243792 226.317529,334.243792" id="Fill-63" fill="#71AF05" opacity="0.782087054"></path>
                    <path d="M162.586446,256.419865 C172.563423,256.419865 180.652174,264.460206 180.652174,274.378725 C180.652174,284.298259 172.563423,292.3386 162.586446,292.3386 C152.609469,292.3386 144.521739,284.298259 144.521739,274.378725 C144.521739,264.460206 152.609469,256.419865 162.586446,256.419865" id="Fill-65" fill="#71AF05" opacity="0.782087054"></path>
                    <path d="M59.2137681,207.530474 C64.7564582,207.530474 69.25,211.997918 69.25,217.507901 C69.25,223.017884 64.7564582,227.485327 59.2137681,227.485327 C53.671078,227.485327 49.1775362,223.017884 49.1775362,217.507901 C49.1775362,211.997918 53.671078,207.530474 59.2137681,207.530474" id="Fill-67" fill="#71AF05" opacity="0.782087054"></path>
                    <path d="M97.8532609,151.656885 C104.781272,151.656885 110.398551,157.241251 110.398551,164.128668 C110.398551,171.016086 104.781272,176.600451 97.8532609,176.600451 C90.9242464,176.600451 85.307971,171.016086 85.307971,164.128668 C85.307971,157.241251 90.9242464,151.656885 97.8532609,151.656885" id="Fill-69" fill="#71AF05" opacity="0.782087054"></path>
                    <path d="M126.456522,149.6614 C129.782299,149.6614 132.478261,152.341565 132.478261,155.647856 C132.478261,158.954146 129.782299,161.634312 126.456522,161.634312 C123.130745,161.634312 120.434783,158.954146 120.434783,155.647856 C120.434783,152.341565 123.130745,149.6614 126.456522,149.6614" id="Fill-71" fill="#71AF05" opacity="0.782087054"></path>
                    <path d="M135.991453,129.706546 C139.039962,129.706546 141.51087,132.387148 141.51087,135.693002 C141.51087,138.998856 139.039962,141.679458 135.991453,141.679458 C132.942944,141.679458 130.471014,138.998856 130.471014,135.693002 C130.471014,132.387148 132.942944,129.706546 135.991453,129.706546" id="Fill-73" fill="#71AF05" opacity="0.782087054"></path>
                    <path d="M158.071162,84.8081264 C161.673666,84.8081264 164.594203,87.7113237 164.594203,91.2934537 C164.594203,94.8755837 161.673666,97.778781 158.071162,97.778781 C154.467638,97.778781 151.547101,94.8755837 151.547101,91.2934537 C151.547101,87.7113237 154.467638,84.8081264 158.071162,84.8081264" id="Fill-75" fill="#71AF05" opacity="0.782087054"></path>
                    <path d="M187.677039,308.302483 C193.774544,308.302483 198.717391,313.21659 198.717391,319.278641 C198.717391,325.338714 193.774544,330.252822 187.677039,330.252822 C181.580529,330.252822 176.637681,325.338714 176.637681,319.278641 C176.637681,313.21659 181.580529,308.302483 187.677039,308.302483" id="Fill-77" fill="#71AF05" opacity="0.782087054"></path>
                    <path d="M182.157609,189.571106 C187.977169,189.571106 192.695652,194.261942 192.695652,200.047404 C192.695652,205.832866 187.977169,210.523702 182.157609,210.523702 C176.338048,210.523702 171.619565,205.832866 171.619565,200.047404 C171.619565,194.261942 176.338048,189.571106 182.157609,189.571106" id="Fill-79" fill="#71AF05" opacity="0.782087054"></path>
                    <path d="M135.990942,270.388262 C139.039491,270.388262 141.51087,273.068514 141.51087,276.374718 C141.51087,279.681972 139.039491,282.361174 135.990942,282.361174 C132.942393,282.361174 130.471014,279.681972 130.471014,276.374718 C130.471014,273.068514 132.942393,270.388262 135.990942,270.388262" id="Fill-81" fill="#71AF05" opacity="0.782087054"></path>
                    <path d="M175.634552,246.442438 C178.959069,246.442438 181.655797,249.122604 181.655797,252.429875 C181.655797,255.735184 178.959069,258.41535 175.634552,258.41535 C172.309047,258.41535 169.612319,255.735184 169.612319,252.429875 C169.612319,249.122604 172.309047,246.442438 175.634552,246.442438" id="Fill-83" fill="#71AF05" opacity="0.782087054"></path>
                    <path d="M112.907609,414.063205 C116.510616,414.063205 119.431159,416.966637 119.431159,420.548533 C119.431159,424.130429 116.510616,427.03386 112.907609,427.03386 C109.304601,427.03386 106.384058,424.130429 106.384058,420.548533 C106.384058,416.966637 109.304601,414.063205 112.907609,414.063205" id="Fill-85" fill="#71AF05" opacity="0.782087054"></path>
                    <path d="M174.128112,398.099323 C177.176621,398.099323 179.648551,400.779925 179.648551,404.085779 C179.648551,407.392741 177.176621,410.072235 174.128112,410.072235 C171.079603,410.072235 168.608696,407.392741 168.608696,404.085779 C168.608696,400.779925 171.079603,398.099323 174.128112,398.099323" id="Fill-87" fill="#71AF05" opacity="0.782087054"></path>
                    <path d="M200.724638,390.117381 C204.604645,390.117381 207.75,393.244307 207.75,397.10158 C207.75,400.958853 204.604645,404.085779 200.724638,404.085779 C196.845634,404.085779 193.699275,400.958853 193.699275,397.10158 C193.699275,393.244307 196.845634,390.117381 200.724638,390.117381" id="Fill-89" fill="#71AF05" opacity="0.782087054"></path>
                    <path d="M141.009058,351.205418 C146.829376,351.205418 151.547101,355.895501 151.547101,361.681716 C151.547101,367.46793 146.829376,372.158014 141.009058,372.158014 C135.189716,372.158014 130.471014,367.46793 130.471014,361.681716 C130.471014,355.895501 135.189716,351.205418 141.009058,351.205418" id="Fill-91" fill="#71AF05" opacity="0.782087054"></path>
                    <path d="M227.320652,391.115124 C230.369202,391.115124 232.84058,393.795611 232.84058,397.101055 C232.84058,400.408599 230.369202,403.088036 227.320652,403.088036 C224.273071,403.088036 221.800725,400.408599 221.800725,397.101055 C221.800725,393.795611 224.273071,391.115124 227.320652,391.115124" id="Fill-93" fill="#71AF05" opacity="0.782087054"></path>
                </g>
            </g>
        </g>
    </g>
</svg>